<?xml version="1.0" encoding="UTF-8"?><svg id="Layer_2" xmlns="http://www.w3.org/2000/svg" xmlns:xlink="http://www.w3.org/1999/xlink" viewBox="0 0 2066.1 312.84"><defs><symbol id="element-binder-wordmark" viewBox="0 0 1248 228"><path id="binder" d="M1136.3,0H116.17C52.01,0,0,52.01,0,116.17h0c0,61.76,50.07,111.83,111.83,111.83h348.02s0-26,0-26H112.75c-47.28,0-86.39-37.85-86.75-85.13-.38-50.04,40.05-90.87,90-90.87h1020.3c47.33,0,85.7,38.37,85.7,85.7v4.6c0,47.33-38.37,85.7-85.7,85.7h-528.07c-1.39,0-2.68.72-3.41,1.9l-11.08,18c-1.64,2.66.28,6.09,3.41,6.09h539.15c61.69,0,111.7-50.01,111.7-111.7v-4.6C1248,50.01,1197.99,0,1136.3,0Z"/></symbol><symbol id="logo-vidala-wordmark-blk" viewBox="0 0 992.9 174"><path id="letter-l" d="M786.45,97.52v18.53c0,2.18-1.77,3.95-3.95,3.95h-96.6c-38.9,0-43.44-31.48-43.44-43.4V3.97C642.45,1.78,644.23,0,646.42,0h18.51c2.2,0,3.97,1.78,3.97,3.97v72.63c0,11.28,9.13,16.96,16.98,16.96h96.6c2.18,0,3.95,1.77,3.95,3.95Z"/><g id="letter-v"><path d="M170.48,0h-18.44c-2.87,0-5.52,1.48-6.93,3.87l-49.39,86.44c-2.65,4.34-4.96,5.79-8.27,5.77-3.31.01-5.61-1.44-8.27-5.77L29.79,3.87c-1.41-2.39-4.05-3.87-6.93-3.87H4.42C1.39,0-1.04,3.12.45,5.64l56,97.37c4.8,7.56,13.8,16.94,31,16.99,17.2-.05,26.2-9.43,31-16.99L174.45,5.64c1.48-2.52-.94-5.64-3.97-5.64Z"/></g><g id="letter-a-02"><path d="M621.45,114.36l-56-97.37c-4.8-7.56-13.8-16.94-31-16.99-17.2.05-26.2,9.43-31,16.99l-56,97.37c-1.48,2.52.94,5.64,3.97,5.64h18.44c2.87,0,5.52-1.48,6.93-3.87l10.7-18.72h93.92l10.7,18.72c1.41,2.39,4.05,3.87,6.93,3.87h18.44c3.03,0,5.45-3.12,3.97-5.64ZM501.2,73.4l24.98-43.71c2.65-4.34,4.96-5.79,8.27-5.77,3.31-.01,5.61,1.44,8.27,5.77l24.98,43.71h-66.49Z"/></g><g id="letter-a-01"><path d="M992.45,114.36l-56-97.37c-4.8-7.56-13.8-16.94-31-16.99-17.2.05-26.2,9.43-31,16.99l-56,97.37c-1.48,2.52.94,5.64,3.97,5.64h18.44c2.87,0,5.52-1.48,6.93-3.87l10.7-18.72h93.92l10.7,18.72c1.41,2.39,4.05,3.87,6.93,3.87h18.44c3.03,0,5.45-3.12,3.97-5.64ZM872.2,73.4l24.98-43.71c2.65-4.34,4.96-5.79,8.27-5.77,3.31-.01,5.61,1.44,8.27,5.77l24.98,43.71h-66.49Z"/></g><rect id="letter-i" x="210.65" y=".29" width="26" height="120" rx="4" ry="4"/><path d="M339.55,0h-39.1s-9.25,0-9.25,0h-8.75c-2.21,0-4,1.79-4,4v112c0,2.21,1.79,4,4,4h18c2.21,0,4-1.79,4-4V24.72h35.27c33.47,0,62.13,27.36,62.56,60.83.43,33.14-22,62.35-67.62,62.35-2.09,0-3.81,1.89-3.81,3.99v18.02c0,2.27,1.89,4,4.16,4,56.44,0,92.62-31.31,92.62-87.56C427.64,38.84,387.04,0,339.55,0Z"/></symbol><clipPath id="clippath"><rect x="1281.51" y="23.05" width="784.59" height="227.9" style="fill:none;"/></clipPath><clipPath id="clippath-1"><rect x="1281.51" y="23.05" width="784.59" height="227.9" style="fill:none;"/></clipPath></defs><g id="Layer_1-2"><g id="vidala-labs-inline-binder-clr"><g id="logo-vidala-wordmark-blk-2"><use width="1248" height="228" transform="translate(0 23.05)" xlink:href="#element-binder-wordmark"/><use width="992.9" height="174" transform="translate(122.51 77.05)" xlink:href="#logo-vidala-wordmark-blk"/><path id="binder-2" d="M1136.3,23.05H116.17C52.01,23.05,0,75.06,0,139.22h0c0,61.76,50.07,111.83,111.83,111.83h348.02s0-26,0-26H112.75c-47.28,0-86.39-37.85-86.75-85.13-.38-50.04,40.05-90.87,90-90.87h1020.3c47.33,0,85.7,38.37,85.7,85.7v4.6c0,47.33-38.37,85.7-85.7,85.7h-528.07c-1.39,0-2.68.72-3.41,1.9l-11.08,18c-1.64,2.66.28,6.09,3.41,6.09h539.15c61.69,0,111.7-50.01,111.7-111.7v-4.6c0-61.69-50.01-111.7-111.7-111.7Z" style="fill:#f96007;"/><path id="letter-l-2" d="M908.95,174.57v18.53c0,2.18-1.77,3.95-3.95,3.95h-96.6c-38.9,0-43.44-31.48-43.44-43.4v-72.63c0-2.19,1.78-3.97,3.97-3.97h18.51c2.2,0,3.97,1.78,3.97,3.97v72.63c0,11.28,9.13,16.96,16.98,16.96h96.6c2.18,0,3.95,1.77,3.95,3.95Z" style="fill:#f96007;"/><g id="letter-v-2"><path d="M292.99,77.05h-18.44c-2.87,0-5.52,1.48-6.93,3.87l-49.39,86.43c-2.65,4.34-4.96,5.79-8.27,5.77-3.31.01-5.61-1.44-8.27-5.77l-49.39-86.43c-1.41-2.39-4.05-3.87-6.93-3.87h-18.44c-3.03,0-5.45,3.12-3.97,5.64l56,97.37c4.8,7.56,13.8,16.94,31,16.99,17.2-.05,26.2-9.43,31-16.99l56-97.37c1.49-2.52-.94-5.64-3.97-5.64Z" style="fill:#f96007;"/></g><g id="letter-a-02-2"><path d="M743.95,191.41l-56-97.37c-4.8-7.56-13.8-16.94-31-16.99-17.2.05-26.2,9.43-31,16.99l-56,97.37c-1.49,2.52.94,5.64,3.97,5.64h18.44c2.87,0,5.52-1.48,6.93-3.87l10.7-18.72h93.92l10.7,18.72c1.41,2.39,4.05,3.87,6.93,3.87h18.44c3.03,0,5.45-3.12,3.97-5.64ZM623.71,150.45l24.98-43.71c2.65-4.34,4.96-5.79,8.27-5.77,3.31-.01,5.61,1.44,8.27,5.77l24.98,43.71h-66.49Z" style="fill:#f96007;"/></g><g id="letter-a-01-2"><path d="M1114.95,191.41l-56-97.37c-4.8-7.56-13.8-16.94-31-16.99-17.2.05-26.2,9.43-31,16.99l-56,97.37c-1.49,2.52.94,5.64,3.97,5.64h18.44c2.87,0,5.52-1.48,6.93-3.87l10.7-18.72h93.92l10.7,18.72c1.41,2.39,4.05,3.87,6.93,3.87h18.44c3.03,0,5.45-3.12,3.97-5.64ZM994.71,150.45l24.98-43.71c2.65-4.34,4.96-5.79,8.27-5.77,3.31-.01,5.61,1.44,8.27,5.77l24.98,43.71h-66.49Z" style="fill:#f96007;"/></g><rect id="letter-i-2" x="333.16" y="77.34" width="26" height="120" rx="4" ry="4" style="fill:#f96007;"/><path d="M462.05,77.05h-39.1s-9.25,0-9.25,0h-8.75c-2.21,0-4,1.79-4,4v112c0,2.21,1.79,4,4,4h18c2.21,0,4-1.79,4-4v-91.28h35.27c33.47,0,62.13,27.36,62.56,60.83.43,33.14-22,62.35-67.62,62.35-2.09,0-3.81,1.89-3.81,3.99v18.02c0,2.27,1.89,4,4.16,4,56.44,0,92.62-31.31,92.62-87.56,0-47.5-40.59-86.34-88.09-86.34Z" style="fill:#f96007;"/></g><g id="extension"><g style="clip-path:url(#clippath);"><path d="M1309.55,239.91V37.92h33.06v188.37l-15.98-17.5h100.16v31.12h-117.25Z"/><path d="M1454.99,239.91l66.54-201.99h43.06l66.54,201.99h-34.87l-18.48-60.71,18.75,13.2h-99.74l10.28-27.5h80.99l-10.42,13.89-21.81-70.85-12.36-45.7h-1.11l-12.09,45.7-40.56,131.97h-34.73Z"/><path d="M1668.09,239.91V37.92h67.79c14.72,0,26.76,2.27,36.12,6.81,9.35,4.54,16.28,10.58,20.77,18.13,4.49,7.55,6.74,16,6.74,25.35,0,12.13-3.4,21.93-10.21,29.38-6.81,7.46-16.14,11.65-27.99,12.57,9.45.65,17.48,2.71,24.1,6.18,6.62,3.47,11.67,8.5,15.14,15.07,3.47,6.58,5.21,14.91,5.21,25,0,14.45-2.94,26.37-8.82,35.77-5.88,9.4-13.96,16.37-24.24,20.91-10.28,4.54-22.04,6.81-35.28,6.81h-69.32ZM1700.04,121.41h29.87c8.98,0,16.02-1.13,21.12-3.4,5.09-2.27,8.68-5.63,10.77-10.07,2.08-4.45,3.12-9.95,3.12-16.53.09-8.8-3.12-14.93-9.65-18.41-6.53-3.47-15.03-5.21-25.49-5.21h-29.73v53.62ZM1700.04,209.76h30.84c13.71,0,23.87-2.13,30.49-6.39,6.62-4.26,9.93-12.73,9.93-25.42,0-9.54-1.81-16.37-5.42-20.49-3.61-4.12-8.47-6.71-14.59-7.78-6.11-1.06-12.92-1.6-20.42-1.6h-30.84v61.68Z"/><path d="M1912.71,242.69c-14.82,0-27.64-2.36-38.48-7.08-10.84-4.72-19.26-11.83-25.28-21.32-6.02-9.49-9.17-21.42-9.45-35.77h31.67c.37,7.78,2.29,14.31,5.76,19.59,3.47,5.28,8.38,9.22,14.73,11.81,6.34,2.59,14.01,3.89,22.99,3.89s15.65-1.02,21.12-3.06c5.46-2.04,9.49-4.93,12.08-8.68,2.59-3.75,3.89-8.17,3.89-13.27,0-5.56-1.58-10.26-4.72-14.1-3.15-3.84-8.13-7.45-14.93-10.83-6.81-3.38-15.81-7.02-27.02-10.91-11.58-3.98-21.69-8.84-30.35-14.59-8.66-5.74-15.37-12.57-20.14-20.49-4.77-7.92-7.15-17.2-7.15-27.85,0-17.97,5.88-31.67,17.64-41.12,11.76-9.45,27.87-14.17,48.34-14.17,14.17,0,25.65,2.18,34.45,6.53,8.8,4.35,15.44,10.77,19.93,19.24,4.49,8.47,7.48,18.96,8.96,31.46h-31.81c-.83-6.39-2.55-11.67-5.14-15.84-2.59-4.17-6.14-7.29-10.63-9.38-4.49-2.08-10.12-3.12-16.88-3.12-10.47,0-18.52,2.11-24.17,6.32-5.65,4.22-8.47,10.49-8.47,18.82,0,4.72.9,9.03,2.71,12.92s5.56,7.73,11.25,11.53c5.7,3.8,14.28,7.97,25.77,12.5,8.89,3.52,17.25,6.88,25.07,10.07,7.83,3.2,14.73,6.88,20.7,11.04,5.97,4.17,10.67,9.36,14.1,15.56,3.43,6.21,5.19,14.08,5.28,23.62.18,18.34-5.81,32.37-17.99,42.09-12.18,9.72-30.12,14.59-53.83,14.59Z"/></g><g style="clip-path:url(#clippath-1);"><path d="M1309.55,239.91V37.92h33.06v188.37l-15.98-17.5h100.16v31.12h-117.25Z" style="fill:#16775c;"/><path d="M1454.99,239.91l66.54-201.99h43.06l66.54,201.99h-34.87l-18.48-60.71,18.75,13.2h-99.74l10.28-27.5h80.99l-10.42,13.89-21.81-70.85-12.36-45.7h-1.11l-12.09,45.7-40.56,131.97h-34.73Z" style="fill:#16775c;"/><path d="M1668.09,239.91V37.92h67.79c14.72,0,26.76,2.27,36.12,6.81,9.35,4.54,16.28,10.58,20.77,18.13,4.49,7.55,6.74,16,6.74,25.35,0,12.13-3.4,21.93-10.21,29.38-6.81,7.46-16.14,11.65-27.99,12.57,9.45.65,17.48,2.71,24.1,6.18,6.62,3.47,11.67,8.5,15.14,15.07,3.47,6.58,5.21,14.91,5.21,25,0,14.45-2.94,26.37-8.82,35.77-5.88,9.4-13.96,16.37-24.24,20.91-10.28,4.54-22.04,6.81-35.28,6.81h-69.32ZM1700.04,121.41h29.87c8.98,0,16.02-1.13,21.12-3.4,5.09-2.27,8.68-5.63,10.77-10.07,2.08-4.45,3.12-9.95,3.12-16.53.09-8.8-3.12-14.93-9.65-18.41-6.53-3.47-15.03-5.21-25.49-5.21h-29.73v53.62ZM1700.04,209.76h30.84c13.71,0,23.87-2.13,30.49-6.39,6.62-4.26,9.93-12.73,9.93-25.42,0-9.54-1.81-16.37-5.42-20.49-3.61-4.12-8.47-6.71-14.59-7.78-6.11-1.06-12.92-1.6-20.42-1.6h-30.84v61.68Z" style="fill:#16775c;"/><path d="M1912.71,242.69c-14.82,0-27.64-2.36-38.48-7.08-10.84-4.72-19.26-11.83-25.28-21.32-6.02-9.49-9.17-21.42-9.45-35.77h31.67c.37,7.78,2.29,14.31,5.76,19.59,3.47,5.28,8.38,9.22,14.73,11.81,6.34,2.59,14.01,3.89,22.99,3.89s15.65-1.02,21.12-3.06c5.46-2.04,9.49-4.93,12.08-8.68,2.59-3.75,3.89-8.17,3.89-13.27,0-5.56-1.58-10.26-4.72-14.1-3.15-3.84-8.13-7.45-14.93-10.83-6.81-3.38-15.81-7.02-27.02-10.91-11.58-3.98-21.69-8.84-30.35-14.59-8.66-5.74-15.37-12.57-20.14-20.49-4.77-7.92-7.15-17.2-7.15-27.85,0-17.97,5.88-31.67,17.64-41.12,11.76-9.45,27.87-14.17,48.34-14.17,14.17,0,25.65,2.18,34.45,6.53,8.8,4.35,15.44,10.77,19.93,19.24,4.49,8.47,7.48,18.96,8.96,31.46h-31.81c-.83-6.39-2.55-11.67-5.14-15.84-2.59-4.17-6.14-7.29-10.63-9.38-4.49-2.08-10.12-3.12-16.88-3.12-10.47,0-18.52,2.11-24.17,6.32-5.65,4.22-8.47,10.49-8.47,18.82,0,4.72.9,9.03,2.71,12.92s5.56,7.73,11.25,11.53c5.7,3.8,14.28,7.97,25.77,12.5,8.89,3.52,17.25,6.88,25.07,10.07,7.83,3.2,14.73,6.88,20.7,11.04,5.97,4.17,10.67,9.36,14.1,15.56,3.43,6.21,5.19,14.08,5.28,23.62.18,18.34-5.81,32.37-17.99,42.09-12.18,9.72-30.12,14.59-53.83,14.59Z" style="fill:#16775c;"/></g></g></g></g></svg>